<svg width="64" height="64" viewBox="0 0 64 64" fill="none" xmlns="http://www.w3.org/2000/svg">
  <rect width="64" height="64" rx="14" fill="#2D3A64"/>
  <path d="M18 40.5C18 31.3873 25.3873 24 34.5 24H46V29H34.5C28.1497 29 23 34.1497 23 40.5C23 46.8503 28.1497 52 34.5 52H46V57H34.5C25.3873 57 18 49.6127 18 40.5Z" fill="#3C5489"/>
  <path d="M23 20.5C23 16.9101 25.9101 14 29.5 14H46V19H29.5C28.1193 19 27 20.1193 27 21.5V34H23V20.5Z" fill="#ACD9E8"/>
  <circle cx="46" cy="40.5" r="6" fill="#ACD9E8"/>
</svg>

